<?xml version="1.0" encoding="utf-8"?>
<!-- Generator: Adobe Illustrator 25.2.3, SVG Export Plug-In . SVG Version: 6.00 Build 0)  -->
<svg version="1.1" id="Слой_1" xmlns="http://www.w3.org/2000/svg" xmlns:xlink="http://www.w3.org/1999/xlink" x="0px" y="0px"
	 viewBox="0 0 260 260" style="enable-background:new 0 0 260 260;" xml:space="preserve">
<g>
	<path d="M49.23,31.23h34.42v10.44H60.54V52.1h21.38v10.44H60.54v20H49.23V31.23z"/>
	<path d="M119.17,31.23h9.35l22.32,51.31h-12.75l-4.42-10.87h-19.93l-4.28,10.87H96.99L119.17,31.23z M123.51,46.15l-6.23,15.94
		h12.54L123.51,46.15z"/>
	<path d="M170.47,31.23h19.13c2.22,0,4.46,0.16,6.7,0.47c2.25,0.32,4.26,0.94,6.05,1.88c1.79,0.94,3.23,2.26,4.35,3.95
		c1.11,1.69,1.67,3.94,1.67,6.74c0,2.9-0.81,5.3-2.43,7.21c-1.62,1.91-3.76,3.27-6.41,4.1v0.14c1.69,0.24,3.23,0.71,4.6,1.41
		c1.38,0.7,2.56,1.6,3.55,2.68c0.99,1.09,1.75,2.36,2.28,3.81c0.53,1.45,0.8,3,0.8,4.64c0,2.7-0.58,4.96-1.74,6.77
		c-1.16,1.81-2.66,3.28-4.49,4.38c-1.84,1.11-3.9,1.91-6.2,2.39c-2.29,0.48-4.58,0.73-6.85,0.73h-21.02V31.23z M181.78,51.73h8.19
		c0.87,0,1.73-0.09,2.57-0.29c0.84-0.19,1.6-0.51,2.28-0.94c0.68-0.43,1.22-1.01,1.63-1.74c0.41-0.73,0.62-1.6,0.62-2.61
		c0-1.06-0.23-1.94-0.69-2.65c-0.46-0.7-1.05-1.24-1.78-1.63c-0.72-0.39-1.55-0.66-2.46-0.83c-0.92-0.17-1.81-0.25-2.68-0.25h-7.68
		V51.73z M181.78,72.97h10.15c0.87,0,1.75-0.1,2.65-0.29c0.89-0.19,1.7-0.53,2.43-1.01c0.73-0.48,1.32-1.11,1.78-1.88
		c0.46-0.77,0.69-1.72,0.69-2.83c0-1.21-0.3-2.19-0.91-2.93c-0.6-0.75-1.37-1.32-2.28-1.7c-0.92-0.39-1.91-0.65-2.97-0.8
		c-1.06-0.14-2.06-0.22-2.97-0.22h-8.55V72.97z"/>
	<path d="M49.23,103.69h34.86v10.44H60.54v9.57h22.25v10.44H60.54v10.44h24.86V155H49.23V103.69z"/>
	<path d="M108.95,103.69h19.86c2.61,0,5.08,0.25,7.43,0.76s4.4,1.35,6.16,2.54c1.76,1.19,3.16,2.78,4.2,4.78
		c1.04,2.01,1.56,4.51,1.56,7.5c0,3.62-0.94,6.7-2.82,9.24c-1.88,2.54-4.64,4.15-8.26,4.82L150.11,155h-13.55l-10.72-20.51h-5.58
		V155h-11.31V103.69z M120.25,124.93h6.67c1.01,0,2.09-0.04,3.23-0.11c1.14-0.07,2.16-0.29,3.08-0.65s1.68-0.93,2.29-1.7
		c0.6-0.77,0.91-1.86,0.91-3.26c0-1.3-0.27-2.34-0.8-3.11c-0.53-0.77-1.21-1.37-2.03-1.78c-0.82-0.41-1.76-0.69-2.82-0.83
		c-1.06-0.14-2.1-0.22-3.12-0.22h-7.39V124.93z"/>
	<path d="M49.23,176.16h11.31v40.87h20.94v10.44H49.23V176.16z"/>
	<path d="M102.06,176.16h11.31v51.31h-11.31V176.16z"/>
	<path d="M171.7,189.5c-1.11-1.35-2.48-2.39-4.09-3.12c-1.62-0.72-3.49-1.09-5.62-1.09s-4.1,0.41-5.91,1.23
		c-1.81,0.82-3.38,1.97-4.71,3.44c-1.33,1.47-2.37,3.23-3.12,5.25c-0.75,2.03-1.12,4.23-1.12,6.59c0,2.42,0.37,4.63,1.12,6.63
		c0.75,2.01,1.78,3.74,3.08,5.22c1.31,1.47,2.84,2.62,4.6,3.44c1.76,0.82,3.66,1.23,5.69,1.23c2.32,0,4.37-0.48,6.16-1.45
		c1.79-0.97,3.26-2.32,4.42-4.06l9.42,7.03c-2.17,3.04-4.93,5.29-8.26,6.74c-3.33,1.45-6.76,2.17-10.29,2.17
		c-4.01,0-7.71-0.63-11.09-1.88c-3.38-1.25-6.3-3.05-8.77-5.4c-2.47-2.34-4.38-5.18-5.76-8.51c-1.38-3.34-2.06-7.05-2.06-11.16
		c0-4.1,0.69-7.83,2.06-11.16c1.38-3.33,3.3-6.17,5.76-8.51c2.46-2.34,5.38-4.14,8.77-5.4c3.38-1.26,7.08-1.88,11.09-1.88
		c1.45,0,2.96,0.13,4.53,0.4c1.57,0.27,3.11,0.69,4.64,1.27c1.52,0.58,2.98,1.35,4.38,2.32c1.4,0.96,2.66,2.15,3.77,3.55
		L171.7,189.5z"/>
</g>
</svg>
