<?xml version="1.0" standalone="no"?>
<!DOCTYPE svg PUBLIC "-//W3C//DTD SVG 20010904//EN"
 "http://www.w3.org/TR/2001/REC-SVG-20010904/DTD/svg10.dtd">
<svg version="1.0" xmlns="http://www.w3.org/2000/svg"
 width="700.000000pt" height="700.000000pt" viewBox="0 0 700.000000 700.000000"
 preserveAspectRatio="xMidYMid meet">
<metadata>
Created by potrace 1.14, written by Peter Selinger 2001-2017
</metadata>
<g transform="translate(0.000000,700.000000) scale(0.100000,-0.100000)"
fill="#000000" stroke="none">
<path d="M1329 6158 c-1 -2 -2 -312 -3 -690 l-1 -688 27 -1 c16 0 71 0 123 0
52 0 109 0 125 0 l30 1 0 268 0 268 273 -1 c149 0 279 1 288 3 23 5 23 270 -1
276 -8 2 -132 4 -275 4 -143 0 -266 1 -272 1 -10 1 -13 36 -13 140 l0 139 305
-1 c168 0 307 2 310 4 4 4 7 127 6 227 l-1 52 -460 0 c-253 0 -460 -1 -461 -2z"/>
<path d="M3206 6152 c-2 -4 -64 -145 -136 -312 -72 -168 -135 -314 -140 -325
-8 -17 -31 -71 -72 -165 -5 -14 -63 -146 -128 -295 -64 -148 -116 -271 -115
-273 3 -3 249 -5 312 -3 18 1 30 23 78 146 l57 145 270 -2 270 -3 56 -140 c30
-77 56 -141 58 -143 3 -5 334 -6 339 -1 2 2 -12 40 -31 84 -20 44 -77 177
-128 295 -51 118 -102 235 -113 260 -12 25 -48 108 -81 185 -34 77 -102 232
-151 345 l-89 205 -125 3 c-69 1 -128 -1 -131 -6z m203 -606 c45 -112 81 -206
81 -210 0 -3 -75 -6 -166 -6 -129 0 -165 3 -161 13 3 6 13 32 22 57 9 25 23
59 30 75 7 17 27 68 45 115 39 101 63 160 66 160 1 0 38 -92 83 -204z"/>
<path d="M4590 5471 l0 -691 23 -1 c12 0 152 -1 310 -1 369 0 428 7 552 68
130 64 196 170 197 314 0 108 -32 185 -106 253 -36 34 -122 77 -152 77 -39 0
-33 12 19 38 119 60 178 160 173 297 -6 168 -96 269 -281 315 -32 8 -173 14
-392 17 l-343 5 0 -691z m641 404 c118 -58 87 -230 -47 -259 -25 -6 -208 -10
-275 -7 -13 1 -15 21 -15 144 l1 142 40 5 c75 9 258 -6 296 -25z m53 -555
c117 -56 116 -193 -3 -259 -41 -22 -54 -24 -215 -25 l-171 -1 -1 150 c0 83 2
154 4 159 3 4 79 6 171 4 149 -4 171 -7 215 -28z"/>
<path d="M1328 4198 c-7 -23 -3 -1357 5 -1364 4 -4 223 -8 487 -8 l480 -1 0
142 0 141 -317 1 c-175 0 -326 0 -335 0 -16 1 -18 15 -18 141 l0 140 300 0
300 0 0 140 0 140 -300 0 -300 0 0 129 0 129 315 -2 c202 -1 316 3 318 9 3 9
1 248 -2 268 0 4 -210 7 -465 7 -362 0 -465 -3 -468 -12z"/>
<path d="M2937 4203 c-2 -4 -4 -316 -3 -692 l1 -685 135 -1 c74 0 142 1 151 3
15 3 16 32 17 255 0 139 1 262 1 275 1 21 5 22 75 22 l73 0 93 -177 c121 -232
192 -367 196 -372 5 -6 332 -7 348 -1 8 3 -36 86 -136 250 -82 135 -151 252
-155 260 -3 8 -15 27 -25 42 l-19 27 28 7 c194 48 301 235 265 460 -29 173
-136 272 -347 320 -45 10 -692 17 -698 7z m648 -276 c71 -31 106 -122 76 -200
-16 -41 -71 -76 -132 -83 -68 -9 -277 -9 -285 -1 -5 4 -8 241 -5 301 1 4 70 6
154 4 113 -3 162 -9 192 -21z"/>
<path d="M4368 2296 c-1 -2 -34 -6 -73 -10 -394 -34 -652 -325 -647 -731 3
-290 137 -514 375 -630 122 -58 198 -76 337 -80 124 -2 215 14 307 56 80 36
167 103 205 158 16 23 16 23 -110 117 l-126 95 -24 -31 c-61 -78 -168 -121
-287 -114 -168 9 -306 136 -351 325 -12 47 -11 185 1 236 29 124 117 238 223
288 46 23 74 28 147 31 118 4 191 -20 253 -84 26 -27 12 -34 155 82 53 43 97
83 97 88 0 19 -94 97 -154 126 -94 47 -138 60 -236 68 -36 3 -70 7 -77 9 -6 2
-13 2 -15 1z"/>
<path d="M1325 1569 c0 -452 3 -689 10 -690 6 -1 198 -2 428 -3 364 -1 420 1
426 14 4 8 6 71 6 140 l-1 125 -275 2 c-151 1 -277 2 -281 2 -5 1 -8 248 -8
550 l0 548 -152 1 -153 0 0 -689z"/>
<path d="M2749 2171 c-2 -405 2 -1285 6 -1290 4 -3 71 -6 151 -6 l144 0 0 45
c1 96 1 1296 1 1316 -1 21 -5 21 -151 21 l-150 0 -1 -86z"/>
</g>
</svg>
