<?xml version="1.0" encoding="utf-8"?>
<!-- Generator: Adobe Illustrator 25.2.3, SVG Export Plug-In . SVG Version: 6.00 Build 0)  -->
<svg version="1.1" id="Слой_1" xmlns="http://www.w3.org/2000/svg" xmlns:xlink="http://www.w3.org/1999/xlink" x="0px" y="0px"
	 viewBox="0 0 167 40" style="enable-background:new 0 0 167 40;" xml:space="preserve">
<style type="text/css">
	.st0{fill:#192038;}
</style>
<path class="st0" d="M68.1,0.4h17.3v2.5H70.8v8.2h12.1v2.5H70.8v8.4h14.8v2.5H68.1V0.4z"/>
<path class="st0" d="M116,0.4h2.7v21.4h12.5v2.5H116V0.4z"/>
<path class="st0" d="M139.6,0.4h-2.7v23.9h2.7V0.4z"/>
<path class="st0" d="M29.7,0.4h-2.6l-10.4,24h2.8l2.8-6.3h12.2l2.8,6.3h2.9L29.7,0.4z M23.3,15.7l5-12.2l5,12.2H23.3z"/>
<path class="st0" d="M109.9,24.4l-4.6-10.1c2.5-1.2,4.7-3.6,4.7-6.6c0-1.9-0.7-3.6-1.9-4.8c-1.5-1.5-4.3-2.4-7.3-2.4h-9.4v24h2.7
	v-9.3h8.6l4.2,9.3L109.9,24.4z M100.6,12.7h-6.5V2.9h6.5c3.9,0,6.6,1.8,6.6,4.7C107.3,10.8,104.3,12.7,100.6,12.7z"/>
<path class="st0" d="M13.8,11.5h-11V2.9h15.2l0-2.5H0v24h2.7V14h11L13.8,11.5z"/>
<path class="st0" d="M44.2,0.4h9.7c2.7,0,5,0.8,6.3,2.1c0.5,0.5,0.9,1.1,1.2,1.8c0.3,0.7,0.4,1.4,0.4,2.1c0,3.1-1.9,4.7-3.8,5.5
	c2.9,0.9,4.8,2.3,4.8,5.7c0,4.1-3.1,6.7-8.4,6.7H44.2V0.4z M53.5,11.1c3.3,0,5.5-1.5,5.5-4.3c0-2.4-1.9-3.9-5.3-3.9h-6.8v8.2H53.5z
	 M54.4,22c3.6,0,5.9-1.6,5.9-4.3c0-2.6-2.2-4.1-6.4-4.1h-7.1V22H54.4z"/>
<path class="st0" d="M164.8,18.1c-1.2,1.7-3,3-5,3.6s-4.1,0.6-6.1,0c-2-0.7-3.7-1.9-4.9-3.6c-1.2-1.7-1.9-3.8-1.8-5.9s0.7-4.1,2-5.8
	c1.3-1.7,3-2.9,5-3.5c2-0.6,4.2-0.6,6.1,0.1c2,0.7,3.7,2,4.9,3.7l2.1-1.4c-1.5-2.2-3.6-3.8-6.1-4.7c-2.5-0.9-5.2-0.9-7.7-0.2
	c-2.5,0.8-4.7,2.3-6.3,4.4c-1.6,2.1-2.5,4.7-2.5,7.3c0,2.6,0.8,5.2,2.3,7.3s3.7,3.7,6.2,4.5c2.5,0.8,5.2,0.8,7.7,0
	c2.5-0.8,4.7-2.4,6.2-4.6L164.8,18.1z"/>
<path class="st0" d="M29.3,30h2.6c0.8,0,1.5,0,2.3,0.2c0.5,0.2,0.9,0.5,1.2,0.9c0.2,0.4,0.4,0.8,0.4,1.3c0,0.3,0,0.6-0.1,0.8
	c-0.1,0.3-0.3,0.5-0.5,0.7c-0.3,0.3-0.6,0.4-1,0.5c1.4,0.3,2.2,1.1,2.2,2.4c0,0.4-0.1,0.8-0.2,1.1c-0.1,0.3-0.4,0.7-0.6,0.9
	c-0.6,0.5-1.3,0.8-2.1,0.8c-0.4,0-0.9,0-1.8,0h-2.3L29.3,30z M31.2,33.9H32c0.5,0,0.9,0,1.4-0.2c0.2-0.1,0.3-0.3,0.4-0.4
	c0.1-0.2,0.2-0.4,0.2-0.6c0-0.2-0.1-0.4-0.2-0.6c-0.1-0.2-0.3-0.3-0.4-0.4c-0.5-0.1-1-0.2-1.5-0.2h-0.7L31.2,33.9z M31.2,38.3H32
	c0.9,0,1.5-0.1,1.7-0.2c0.4-0.2,0.6-0.6,0.6-1.2s-0.2-1-0.7-1.2c-0.5-0.2-1.1-0.2-1.6-0.2h-0.9V38.3z"/>
<path class="st0" d="M41.5,33.9h3.9v1.6h-3.9v2.7H46v1.6h-6.4V30h6.2v1.6h-4.3V33.9z"/>
<path class="st0" d="M53.6,30h2.1l2.1,3.9l2-3.9h2.1l-3.2,6v3.9h-1.9v-3.9L53.6,30z"/>
<path class="st0" d="M68.1,29.8c0.6,0,1.1,0.1,1.6,0.3c0.5,0.2,1,0.5,1.4,0.9c1,0.9,1.4,2.2,1.4,3.9c0,1.7-0.5,3-1.4,3.9
	c-0.8,0.8-1.9,1.2-3,1.2c-1.1,0-2.2-0.4-3-1.2c-1-0.9-1.4-2.3-1.4-4c0-0.8,0.1-1.6,0.4-2.3c0.3-0.9,1-1.7,1.9-2.2
	C66.6,30,67.3,29.8,68.1,29.8z M68.1,31.4c-0.3,0-0.7,0-1,0.2c-0.3,0.1-0.6,0.4-0.8,0.6c-0.5,0.7-0.7,1.5-0.7,2.6
	c0,1.1,0.2,2.1,0.7,2.7c0.2,0.3,0.5,0.5,0.8,0.6c0.3,0.1,0.6,0.2,1,0.2s0.7-0.1,1-0.2c0.3-0.1,0.6-0.3,0.8-0.6
	c0.5-0.7,0.7-1.6,0.7-2.7c0-1.1-0.2-2-0.7-2.7c-0.2-0.3-0.5-0.5-0.8-0.6C68.8,31.4,68.4,31.4,68.1,31.4L68.1,31.4z"/>
<path class="st0" d="M75.8,30h1.9v5.6c0,0.5,0,1.1,0.2,1.6c0.1,0.4,0.4,0.7,0.7,0.9c0.3,0.2,0.7,0.3,1.1,0.3c1,0,1.7-0.4,1.9-1.3
	c0.1-0.5,0.1-1,0.1-1.5V30h1.9v5.7c0,0.5,0,1.1-0.1,1.6c-0.1,0.8-0.5,1.5-1.1,1.9c-0.8,0.5-1.7,0.8-2.7,0.8c-0.9,0-1.9-0.3-2.7-0.8
	c-0.6-0.5-1-1.2-1.1-1.9c-0.1-0.5-0.1-1.1-0.1-1.6L75.8,30z"/>
<path class="st0" d="M87.4,30h2.5c0.7,0,1.4,0,2.1,0.1c0.7,0.1,1.4,0.5,1.9,1.1c0.4,0.5,0.6,1.2,0.6,1.8c0,0.6-0.1,1.2-0.4,1.6
	c-0.3,0.5-0.8,0.9-1.3,1.1l2.3,4.1h-2.2l-2-3.8h-1.4v3.8h-1.9L87.4,30z M89.3,34.4H90c0.5,0,1.1,0,1.6-0.2c0.3-0.1,0.5-0.3,0.6-0.5
	c0.1-0.2,0.2-0.5,0.2-0.8c0-0.2,0-0.5-0.1-0.7c-0.1-0.2-0.3-0.4-0.5-0.5c-0.3-0.1-0.6-0.2-1-0.2c-0.2,0-0.5,0-1,0h-0.5V34.4z"/>
<path class="st0" d="M103.4,30h2.6c0.8,0,1.5,0,2.3,0.2c0.5,0.2,0.9,0.5,1.2,0.9c0.2,0.4,0.4,0.8,0.4,1.3c0,0.3,0,0.6-0.1,0.8
	c-0.1,0.3-0.3,0.5-0.5,0.7c-0.3,0.3-0.6,0.4-1,0.5c1.4,0.3,2.2,1.1,2.2,2.4c0,0.4-0.1,0.8-0.2,1.1c-0.1,0.3-0.4,0.7-0.6,0.9
	c-0.6,0.5-1.3,0.8-2.1,0.8c-0.4,0-0.9,0-1.8,0h-2.3L103.4,30z M105.2,33.9h0.8c0.5,0,0.9,0,1.4-0.2c0.2-0.1,0.3-0.3,0.4-0.4
	c0.1-0.2,0.2-0.4,0.2-0.6c0-0.2-0.1-0.4-0.2-0.6c-0.1-0.2-0.3-0.3-0.4-0.4c-0.5-0.1-1-0.2-1.5-0.2h-0.7L105.2,33.9z M105.2,38.3h0.9
	c0.9,0,1.5-0.1,1.7-0.2c0.4-0.2,0.6-0.6,0.6-1.2c0-0.6-0.2-1-0.7-1.2c-0.5-0.2-1.1-0.2-1.6-0.2h-0.9V38.3z"/>
<path class="st0" d="M115.6,33.9h3.9v1.6h-3.9v2.7h4.5v1.6h-6.4V30h6.2v1.6h-4.3V33.9z"/>
<path class="st0" d="M129.7,32.8h-1.8c0-0.3-0.1-0.6-0.3-0.9c-0.2-0.2-0.4-0.3-0.6-0.4c-0.2-0.1-0.5-0.1-0.7-0.1
	c-0.3,0-0.7,0.1-1,0.3c-0.1,0.1-0.3,0.2-0.3,0.3c-0.1,0.1-0.1,0.3-0.1,0.5c0,0.2,0.1,0.3,0.1,0.4c0.1,0.1,0.2,0.2,0.4,0.3
	c0.2,0.1,0.7,0.3,1.6,0.7s1.4,0.6,1.6,0.7c0.5,0.2,0.9,0.6,1.2,1.1c0.2,0.4,0.3,0.8,0.3,1.2c0,0.5-0.1,0.9-0.3,1.3
	c-0.2,0.4-0.5,0.8-0.8,1c-0.7,0.5-1.5,0.7-2.4,0.7c-1.6,0-2.7-0.5-3.3-1.5c-0.4-0.6-0.5-1.3-0.5-2h1.8c0.1,1.3,0.8,1.9,2,1.9
	c0.4,0,0.8-0.1,1.1-0.3c0.1-0.1,0.2-0.2,0.3-0.3c0.1-0.1,0.1-0.3,0.1-0.4c0-0.4-0.2-0.7-0.7-0.9c-0.2-0.1-0.7-0.3-1.7-0.7
	c-1-0.4-1.7-0.8-2.1-1.2c-0.5-0.5-0.7-1.1-0.7-1.8c0-0.7,0.2-1.3,0.7-1.8c0.4-0.4,0.9-0.7,1.4-0.9c0.4-0.1,0.9-0.2,1.3-0.2
	c0.7,0,1.4,0.2,2,0.5c0.6,0.4,1.1,0.9,1.3,1.6C129.6,32.2,129.7,32.5,129.7,32.8z"/>
<path class="st0" d="M132.3,30h7.1v1.6h-2.6v8.2h-1.9v-8.2h-2.6L132.3,30z"/>
</svg>
